<svg width="45" height="45" viewBox="0 0 45 45" fill="none" xmlns="http://www.w3.org/2000/svg">
<circle cx="22.5" cy="22.5" r="21.5" fill="white" stroke="#F13C6E" stroke-width="2"/>
<path d="M35.8947 29.4498C35.8607 29.3766 35.8291 29.3159 35.7997 29.2672C35.3131 28.3909 34.3833 27.3154 33.0109 26.0402L32.9819 26.011L32.9674 25.9966L32.9527 25.982H32.9379C32.3151 25.3882 31.9206 24.9889 31.7554 24.7845C31.4532 24.3951 31.3855 24.001 31.5507 23.6016C31.6674 23.2999 32.1057 22.6627 32.8648 21.6891C33.264 21.1732 33.5802 20.7596 33.8137 20.4481C35.4978 18.2092 36.228 16.7784 36.004 16.1554L35.917 16.0098C35.8585 15.9221 35.7077 15.842 35.4646 15.7688C35.221 15.6959 34.9096 15.6838 34.5299 15.7324L30.3249 15.7615C30.2567 15.7373 30.1595 15.7396 30.0328 15.7688C29.9062 15.7981 29.8429 15.8128 29.8429 15.8128L29.7697 15.8493L29.7116 15.8933C29.6629 15.9223 29.6094 15.9734 29.5509 16.0464C29.4928 16.1192 29.4441 16.2046 29.4053 16.3019C28.9474 17.4797 28.4269 18.5748 27.8428 19.5871C27.4826 20.1907 27.1518 20.7138 26.8497 21.1567C26.548 21.5995 26.2949 21.9257 26.0907 22.1349C25.8861 22.3442 25.7015 22.5119 25.5357 22.6385C25.3702 22.7653 25.2438 22.8188 25.1563 22.7992C25.0686 22.7796 24.986 22.7602 24.9078 22.7408C24.7716 22.6531 24.6621 22.5339 24.5795 22.383C24.4965 22.2322 24.4407 22.0423 24.4115 21.8135C24.3824 21.5846 24.3652 21.3877 24.3603 21.2222C24.3558 21.0569 24.3579 20.823 24.3678 20.5213C24.3779 20.2194 24.3824 20.0151 24.3824 19.908C24.3824 19.5381 24.3896 19.1366 24.4041 18.7034C24.4188 18.2703 24.4308 17.9271 24.4407 17.6742C24.4507 17.4211 24.4553 17.1534 24.4553 16.8711C24.4553 16.5888 24.4381 16.3674 24.4041 16.2067C24.3706 16.0462 24.3191 15.8904 24.2512 15.7394C24.1829 15.5886 24.083 15.4719 23.9519 15.389C23.8205 15.3063 23.6572 15.2406 23.4628 15.1918C22.9468 15.0751 22.2898 15.0119 21.4915 15.0021C19.681 14.9826 18.5177 15.0996 18.0018 15.3526C17.7974 15.4596 17.6124 15.6057 17.4471 15.7905C17.2718 16.0047 17.2473 16.1216 17.3739 16.1409C17.958 16.2284 18.3715 16.4377 18.6149 16.7686L18.7026 16.944C18.7708 17.0705 18.8389 17.2945 18.9071 17.6157C18.9752 17.9368 19.0191 18.2921 19.0384 18.6813C19.087 19.392 19.087 20.0004 19.0384 20.5064C18.9897 21.0127 18.9437 21.4069 18.8997 21.6892C18.8558 21.9715 18.7902 22.2002 18.7026 22.3754C18.6149 22.5506 18.5565 22.6577 18.5273 22.6965C18.4981 22.7354 18.4737 22.7599 18.4544 22.7695C18.3279 22.818 18.1963 22.8427 18.0601 22.8427C17.9237 22.8427 17.7583 22.7745 17.5637 22.6381C17.3691 22.5018 17.1672 22.3145 16.9578 22.076C16.7485 21.8374 16.5125 21.504 16.2495 21.0758C15.9868 20.6475 15.7143 20.1414 15.432 19.5574L15.1984 19.1338C15.0524 18.8614 14.8529 18.4646 14.5998 17.9439C14.3466 17.4231 14.1228 16.9192 13.9282 16.4325C13.8504 16.2281 13.7335 16.0725 13.5778 15.9654L13.5047 15.9215C13.4561 15.8826 13.3781 15.8413 13.2712 15.7974C13.164 15.7534 13.0522 15.7219 12.9353 15.7025L8.93465 15.7316C8.52583 15.7316 8.24844 15.8242 8.10238 16.0092L8.04393 16.0967C8.01473 16.1454 8 16.2233 8 16.3304C8 16.4375 8.0292 16.5689 8.08765 16.7245C8.67168 18.0972 9.3068 19.4209 9.993 20.6961C10.6792 21.9712 11.2755 22.9984 11.7815 23.7766C12.2877 24.5554 12.8036 25.2905 13.3293 25.9814C13.8549 26.6726 14.2029 27.1155 14.3731 27.3101C14.5436 27.505 14.6775 27.6508 14.7748 27.7481L15.1399 28.0985C15.3735 28.3321 15.7166 28.612 16.1692 28.938C16.6219 29.2642 17.1232 29.5854 17.6731 29.902C18.2232 30.2181 18.8631 30.476 19.5933 30.6755C20.3233 30.8752 21.0338 30.9554 21.725 30.9167H23.4042C23.7447 30.8873 24.0027 30.7802 24.1781 30.5954L24.2362 30.5222C24.2752 30.4641 24.3118 30.3739 24.3456 30.2524C24.3797 30.1307 24.3967 29.9967 24.3967 29.8509C24.3867 29.4324 24.4186 29.0553 24.4914 28.7195C24.5642 28.3838 24.6471 28.1307 24.7399 27.9602C24.8326 27.7899 24.9373 27.6462 25.0537 27.5297C25.1704 27.413 25.2536 27.3423 25.3023 27.3179C25.3508 27.2934 25.3895 27.2768 25.4187 27.2668C25.6524 27.189 25.9273 27.2644 26.2439 27.4933C26.5604 27.7221 26.8571 28.0045 27.1347 28.3402C27.4122 28.6762 27.7455 29.0532 28.1348 29.4716C28.5243 29.8903 28.8649 30.2015 29.1568 30.4062L29.4487 30.5814C29.6437 30.6983 29.8968 30.8054 30.2083 30.9027C30.5193 31 30.7918 31.0243 31.0257 30.9757L34.7635 30.9174C35.1332 30.9174 35.4208 30.8562 35.6249 30.7347C35.8293 30.6131 35.9508 30.479 35.99 30.3332C36.029 30.1873 36.0311 30.0217 35.9974 29.8365C35.9628 29.6519 35.9286 29.5227 35.8947 29.4498Z" fill="#F13C6E"/>
</svg>
