<svg width="45" height="45" viewBox="0 0 45 45" fill="none" xmlns="http://www.w3.org/2000/svg">
<circle cx="22.5" cy="22.5" r="21.5" fill="white" stroke="#F13C6E" stroke-width="2"/>
<path d="M28.5749 15H15.6069C13.0626 15 11 17.1025 11 19.696V26.304C11 28.8975 13.0626 31 15.6069 31H28.5749C31.1192 31 33.1818 28.8975 33.1818 26.304V19.696C33.1818 17.1025 31.1192 15 28.5749 15ZM25.4593 23.3215L19.3938 26.2704C19.2321 26.3489 19.0454 26.2288 19.0454 26.0463V19.9643C19.0454 19.7792 19.237 19.6592 19.399 19.7429L25.4646 22.8761C25.6449 22.9692 25.6418 23.2328 25.4593 23.3215Z" fill="#F13C6E"/>
</svg>
